<svg xmlns="http://www.w3.org/2000/svg" width="48.258" height="43.017" viewBox="0 0 48.258 43.017">
  <g id="_05" data-name="05" transform="translate(0 -33.234)">
    <g id="Grupo_1" data-name="Grupo 1" transform="translate(0 33.234)">
      <path id="Caminho_1" data-name="Caminho 1" d="M204.632,39.539l-29.556-6.255a2.331,2.331,0,0,0-2.754,1.793l-.562,3.609,34.1,7.217.562-3.609A2.331,2.331,0,0,0,204.632,39.539Z" transform="translate(-158.216 -33.234)" fill="#bbb"/>
      <path id="Caminho_2" data-name="Caminho 2" d="M33.987,170.005a2.353,2.353,0,0,0-2.887-1.633l-5.611,1.558-13.227-2.8L10.807,174l-9.089,2.523a2.352,2.352,0,0,0-1.633,2.887l5.122,18.458A2.353,2.353,0,0,0,8.094,199.5l29.382-8.154a2.353,2.353,0,0,0,1.633-2.887l-.879-3.169,3.3.7a2.33,2.33,0,0,0,2.754-1.792l2.085-9.852-11.87-2.512Zm3.393,9.381.727-3.434a.959.959,0,0,1,1.133-.737l3.434.727a.959.959,0,0,1,.738,1.133l-.727,3.434a.959.959,0,0,1-1.133.737l-3.434-.727A.959.959,0,0,1,37.38,179.386ZM2.229,178.368l8.131-2.256,19.185-5.324,2.064-.574a.43.43,0,0,1,.112-.015.443.443,0,0,1,.421.317l.242.873.759,2.737L2.929,182.511l-1-3.609A.44.44,0,0,1,2.229,178.368Zm35.037,10.605a.441.441,0,0,1-.3.534L7.583,197.661a.427.427,0,0,1-.112.015.444.444,0,0,1-.421-.317L4.062,186.593l30.216-8.385,1.843,6.64Z" transform="translate(0 -156.572)" fill="#bbb"/>
      <path id="Caminho_3" data-name="Caminho 3" d="M94.366,445.3a.959.959,0,0,0-1.177-.666l-3.431.953a.959.959,0,0,0-.665,1.177l.952,3.431a.958.958,0,0,0,1.177.665l3.431-.952a.959.959,0,0,0,.666-1.177Z" transform="translate(-82.035 -412.163)" fill="#bbb"/>
    </g>
  </g>
</svg>
