<svg xmlns="http://www.w3.org/2000/svg" width="38.79" height="48.936" viewBox="0 0 38.79 48.936"><g transform="translate(-839.002 -10.863)" opacity="0.4"><g transform="translate(839.002 39.111)"><g transform="translate(0 0)"><path d="M891.627,335.935H860.6a1.942,1.942,0,0,0-1.94,1.94v2.586a.647.647,0,0,0,1.293,0v-2.586a.647.647,0,0,1,.646-.646h1.94v3.232a.646.646,0,0,0,1.293,0v-3.232h16.809v3.232a.646.646,0,0,0,1.293,0v-3.232h6.465v3.232a.646.646,0,0,0,1.293,0v-3.232h1.94a.647.647,0,0,1,.646.646V342.4h-1.94a.647.647,0,0,0-.646.646v5.818h-.646a.646.646,0,1,0,0,1.293h1.94v4.526a.647.647,0,0,1-.646.646H870.293V352.1a.646.646,0,0,0-1.293,0v3.233h-1.293V352.1a.646.646,0,1,0-1.293,0v3.233h-1.293V352.1a.646.646,0,0,0-1.293,0v3.233h-5.818a.648.648,0,0,1-.646-.646V352.1a.646.646,0,1,0-1.293,0v2.586a1.942,1.942,0,0,0,1.94,1.939h32.325a1.942,1.942,0,0,0,1.939-1.939v-4.526a1.266,1.266,0,0,0-1.293-1.293v-5.172h1.293a1.266,1.266,0,0,0,1.293-1.293v-4.525A1.942,1.942,0,0,0,891.627,335.935Z" transform="translate(-854.777 -335.935)" fill="#545454"/><path d="M864.215,429.027a.646.646,0,0,0,0-1.293H857.1v-5.172h9.051v9.7a.646.646,0,0,0,1.005.538l1.581-1.054,1.581,1.054a.646.646,0,0,0,1.005-.538v-9.7h.646a.646.646,0,0,0,0-1.293H840.942a1.919,1.919,0,0,0-1.939,1.94v3.879a1.942,1.942,0,0,0,1.939,1.939h23.274Zm3.232-6.465h2.586v8.489l-.934-.623a.647.647,0,0,0-.718,0l-.934.623v-8.489Zm-20.688,0h9.051v5.172H846.76Zm-6.465,4.525v-3.879a.632.632,0,0,1,.646-.646h4.525v5.172h-4.525A.64.64,0,0,1,840.295,427.087Z" transform="translate(-839.002 -414.804)" fill="#545454"/><path d="M1010.314,455.4a.647.647,0,0,0-.646.646v1.293a.646.646,0,0,0,1.293,0v-1.293A.647.647,0,0,0,1010.314,455.4Z" transform="translate(-996.738 -446.35)" fill="#545454"/><path d="M976.18,455.4a.647.647,0,0,0-.646.646v1.293a.646.646,0,1,0,1.293,0v-1.293A.647.647,0,0,0,976.18,455.4Z" transform="translate(-965.19 -446.35)" fill="#545454"/></g></g><g transform="translate(847.816 14.78)"><path d="M959.15,36.806h1.79V39.4l-.36.36a1.192,1.192,0,0,0-.94,1.158v1.007a1.2,1.2,0,0,0,1.2,1.2h16.28a1.2,1.2,0,0,0,1.2-1.2V40.919a1.2,1.2,0,0,0-.942-1.172l-.357-.356V23.658a3.264,3.264,0,0,0-1.542-6.174,3.262,3.262,0,0,0-5.466-1.8,3.3,3.3,0,0,0-3.876-.077,2.245,2.245,0,0,0-2.844.283,3.123,3.123,0,0,0-1.09-.206,3.264,3.264,0,0,0-1.259,6.261v1.935H959.15a3.58,3.58,0,0,0-3.81,3.806v5.338A3.587,3.587,0,0,0,959.15,36.806Zm.87-17.86a2.178,2.178,0,0,1,2.175-2.175,2.121,2.121,0,0,1,1,.259.54.54,0,0,0,.712-.179,1.191,1.191,0,0,1,1.658-.3.977.977,0,0,1,.16.131.54.54,0,0,0,.387.167.6.6,0,0,0,.391-.15,2.136,2.136,0,0,1,3.023.007,1.315,1.315,0,0,1,.1.113.541.541,0,0,0,.849-.044,2.177,2.177,0,0,1,3.939,1.208v.1a.54.54,0,0,0,.531.554.443.443,0,0,0,.133-.012,2.177,2.177,0,1,1-1.546,2.858.547.547,0,0,0-.457-.355h-.053a.542.542,0,0,0-.462.256,2.15,2.15,0,0,1-2.958.7,2.172,2.172,0,0,1-.7-.7.543.543,0,0,0-.729-.162,1.085,1.085,0,0,1-1.087,0,.543.543,0,0,0-.653.1,2.143,2.143,0,0,1-3.027.032c-.044-.046-.089-.094-.13-.143a.541.541,0,0,0-.544-.172,2.031,2.031,0,0,1-.546.075A2.177,2.177,0,0,1,960.02,18.946Zm1.2,21.717.653-.653a.536.536,0,0,0,.159-.386V22.21h.174a2.693,2.693,0,0,0,.483-.043,3.263,3.263,0,0,0,2.231.892,3.185,3.185,0,0,0,2.046-.734,2.165,2.165,0,0,0,1.295.037,3.235,3.235,0,0,0,4.557.384c.039-.034.08-.07.118-.107A3.261,3.261,0,0,0,975.566,24a3.068,3.068,0,0,0,.353,0V39.628a.55.55,0,0,0,.159.389l.653.65a.537.537,0,0,0,.386.159.108.108,0,0,1,.107.111v1a.107.107,0,0,1-.107.108h-16.28a.109.109,0,0,1-.111-.108V40.919a.11.11,0,0,1,.111-.109A.544.544,0,0,0,961.216,40.663Zm-.276-7.471h-.793a1.2,1.2,0,0,1-1.319-1.065,1.229,1.229,0,0,1,0-.252V28.812a1.2,1.2,0,0,1,1.065-1.317,1.267,1.267,0,0,1,.254,0h.793Zm-4.494-5.518a2.5,2.5,0,0,1,2.721-2.72h1.79V26.39h-.81a2.267,2.267,0,0,0-2.407,2.114,2.768,2.768,0,0,0,0,.292V31.86a2.266,2.266,0,0,0,2.116,2.4,2.767,2.767,0,0,0,.292,0h.793V35.7h-1.79a2.5,2.5,0,0,1-2.721-2.721Z" transform="translate(-959.34 -18.697)" fill="#545454"/><path d="M1137.113,141.434a.545.545,0,0,0,.544-.544v-9.948a.544.544,0,0,0-1.089,0v9.948A.545.545,0,0,0,1137.113,141.434Z" transform="translate(-1123.957 -123.718)" fill="#545454"/><path d="M1097.75,141.434a.543.543,0,0,0,.542-.544v-9.948a.544.544,0,0,0-1.089,0v9.948A.546.546,0,0,0,1097.75,141.434Z" transform="translate(-1088.2 -123.718)" fill="#545454"/><path d="M1058.345,141.434a.546.546,0,0,0,.546-.544v-9.948a.545.545,0,0,0-1.09,0v9.948A.545.545,0,0,0,1058.345,141.434Z" transform="translate(-1052.409 -123.718)" fill="#545454"/></g></g></svg>