<svg xmlns="http://www.w3.org/2000/svg" width="44.852" height="44.852" viewBox="0 0 44.852 44.852"><g opacity="0.4"><g transform="translate(0)"><path d="M43.976,24.852h-3.1V20.635c0-.028,0-.057,0-.085,0-.012,0-.024-.005-.036s0-.031-.007-.046-.007-.029-.01-.043-.006-.025-.009-.037-.01-.03-.015-.045,0-.016-.008-.023l-.009-.023v0a11.436,11.436,0,0,0-6.17-6.61V5.212h.843a.876.876,0,0,0,.876-.876V.876A.876.876,0,0,0,35.479,0H26.947a.876.876,0,0,0-.876.876v3.46a.876.876,0,0,0,.876.876h.843v8.471a11.18,11.18,0,0,0-5.363,4.887,11.18,11.18,0,0,0-5.363-4.887V5.212h.843a.876.876,0,0,0,.876-.876V.876A.876.876,0,0,0,17.906,0H9.375A.876.876,0,0,0,8.5.876v3.46a.876.876,0,0,0,.876.876h.843v8.471A11.441,11.441,0,0,0,4.037,20.32a.877.877,0,0,0-.059.315v4.218H.877A.876.876,0,0,0,0,25.729V43.975a.876.876,0,0,0,.876.876h43.1a.876.876,0,0,0,.876-.876V25.728A.876.876,0,0,0,43.976,24.852ZM27.823,1.752H34.6V3.46h-6.78Zm5.06,3.46v2.8H29.542v-2.8Zm-3.9,9.873.01,0,.05-.022.031-.015.04-.023L29.149,15l.029-.021.041-.031.021-.019c.014-.012.028-.025.042-.038l.019-.02c.013-.014.026-.027.038-.041l.021-.027c.01-.013.02-.025.029-.039s.016-.026.024-.039l.019-.031c.009-.016.016-.032.024-.048l.013-.027c.007-.017.013-.034.02-.051s.007-.019.01-.028.009-.032.013-.048.007-.024.009-.036.005-.027.007-.041.005-.031.007-.047,0-.022,0-.034,0-.037,0-.055c0,0,0-.007,0-.01v-4.5h3.342v4.5h0a.876.876,0,0,0,.56.817,9.438,9.438,0,0,1,5.207,4.674H23.775A9.438,9.438,0,0,1,28.982,15.086ZM23.43,21.511H39.123v3.342H23.43ZM10.251,1.752h6.78V3.46h-6.78Zm5.06,3.46v2.8H11.97v-2.8Zm-9.454,16.3h5.819a.876.876,0,1,0,0-1.752H6.2a9.438,9.438,0,0,1,5.206-4.674l.009,0,.051-.023.03-.014.042-.024L11.576,15l.03-.022.04-.03.023-.02c.014-.012.028-.024.041-.037l.02-.021c.013-.013.025-.027.037-.04l.022-.028c.01-.013.019-.025.028-.038s.016-.026.024-.039l.019-.031c.009-.016.016-.032.024-.048l.013-.027c.007-.016.013-.033.019-.05s.007-.019.011-.029.009-.031.013-.047.007-.025.01-.037,0-.026.007-.039.006-.032.007-.048,0-.021,0-.032,0-.038,0-.057c0,0,0-.007,0-.01v-4.5h3.342v4.5s0,.007,0,.01c0,.019,0,.038,0,.057s0,.022,0,.032,0,.032.007.048,0,.026.007.039.006.025.01.037.008.031.013.047.007.02.011.029.012.034.019.05l.013.027c.008.016.015.032.024.048l.019.031c.008.013.016.026.024.039s.019.025.028.038l.022.028c.012.014.024.027.037.04l.02.021.041.037.023.02.04.03L15.7,15l.035.021.042.024.03.014.051.023.009,0a9.438,9.438,0,0,1,5.206,4.674H18.8a.876.876,0,0,0,0,1.752H21.55v3.342H5.858ZM43.1,33.976H36.156a.876.876,0,1,0,0,1.752H43.1V43.1H1.753V35.728h19.8v.54a.876.876,0,0,0,1.752,0v-.54h5.733a.876.876,0,1,0,0-1.752H23.3v-1.8a.876.876,0,1,0-1.752,0v1.8H1.753V26.6H43.1Z" transform="translate(-0.001)" fill="#545454"/></g><g transform="translate(15.33 19.759)"><path d="M175.921,225.56h-.042a.876.876,0,1,0,0,1.752h.042a.876.876,0,1,0,0-1.752Z" transform="translate(-175.003 -225.56)" fill="#545454"/></g><g transform="translate(30.706 33.976)"><path d="M351.449,387.852h-.042a.876.876,0,1,0,0,1.752h.042a.876.876,0,1,0,0-1.752Z" transform="translate(-350.531 -387.852)" fill="#545454"/></g><g transform="translate(39.058 36.931)"><path d="M446.747,421.581a.876.876,0,0,0-.876.876v3.214a.876.876,0,1,0,1.752,0v-3.214A.876.876,0,0,0,446.747,421.581Z" transform="translate(-445.871 -421.581)" fill="#545454"/></g><g transform="translate(4.041 36.931)"><path d="M47.007,421.581a.876.876,0,0,0-.876.876v3.214a.876.876,0,1,0,1.752,0v-3.214A.876.876,0,0,0,47.007,421.581Z" transform="translate(-46.131 -421.581)" fill="#545454"/></g><g transform="translate(4.041 27.807)"><path d="M47.007,317.433a.876.876,0,0,0-.876.876v3.214a.876.876,0,0,0,1.752,0v-3.214A.876.876,0,0,0,47.007,317.433Z" transform="translate(-46.131 -317.433)" fill="#545454"/></g><g transform="translate(39.058 27.807)"><path d="M446.747,317.433a.876.876,0,0,0-.876.876v3.214a.876.876,0,0,0,1.752,0v-3.214A.876.876,0,0,0,446.747,317.433Z" transform="translate(-445.871 -317.433)" fill="#545454"/></g></g></svg>