<svg xmlns="http://www.w3.org/2000/svg" width="58.864" height="43.076" viewBox="0 0 58.864 43.076"><g transform="translate(-0.001 0)" opacity="0.4"><g transform="translate(38.279 15.904)"><path d="M341.545,217.536l-3.7-2.953h.338a3.794,3.794,0,1,0,0-7.588H334.1a1.15,1.15,0,0,0-1.15,1.15v10.29a1.15,1.15,0,0,0,2.3,0v-2.98l4.859,3.878a1.15,1.15,0,1,0,1.434-1.8Zm-6.293-8.241h2.932a1.495,1.495,0,1,1,0,2.989h-2.932Z" transform="translate(-332.952 -206.995)" fill="#545454"/></g><g transform="translate(11.56 15.691)"><path d="M109.573,208.937a3.8,3.8,0,0,0-3.794-3.794H101.7a1.15,1.15,0,0,0-1.15,1.15V216.87a1.15,1.15,0,0,0,1.15,1.15h4.081a3.791,3.791,0,0,0,2.717-6.438A3.781,3.781,0,0,0,109.573,208.937Zm-3.794,6.783h-2.932v-2.989h2.932a1.495,1.495,0,1,1,0,2.989Zm0-5.289h-2.932v-2.989h2.932a1.495,1.495,0,0,1,0,2.989Z" transform="translate(-100.548 -205.143)" fill="#545454"/></g><g transform="translate(30.046 15.933)"><path d="M266.687,217.477h-3.045v-2.817h1.666a1.15,1.15,0,0,0,0-2.3h-1.666v-2.817h3.045a1.15,1.15,0,0,0,0-2.3h-4.194a1.144,1.144,0,0,0-.143.01,1.157,1.157,0,0,0-.187.039c-.03.009-.06.02-.089.031l-.028.01-.027.013a1.15,1.15,0,0,0-.669.929c0,.009,0,.018,0,.027,0,.03,0,.06,0,.09h0v10.232h0a1.15,1.15,0,0,0,1.15,1.15h4.194a1.15,1.15,0,1,0,0-2.3Z" transform="translate(-261.343 -207.245)" fill="#545454"/></g><g transform="translate(22.067 15.933)"><path d="M197.278,217.477h-3.045v-2.817H195.9a1.15,1.15,0,0,0,0-2.3h-1.666v-2.817h3.045a1.15,1.15,0,1,0,0-2.3h-4.194a1.144,1.144,0,0,0-.143.01,1.158,1.158,0,0,0-.187.039c-.03.009-.06.02-.089.031l-.028.01-.027.013a1.15,1.15,0,0,0-.669.929c0,.009,0,.018,0,.027,0,.03,0,.06,0,.09h0v10.232a1.15,1.15,0,0,0,1.15,1.15h4.194a1.15,1.15,0,1,0,0-2.3Z" transform="translate(-191.934 -207.245)" fill="#545454"/></g><g transform="translate(0 0)"><path d="M57.715,71.335H46.458V69.811a1.15,1.15,0,0,0-1.15-1.15H41.465a1.15,1.15,0,0,0-1.15,1.15v1.524H18.549V69.811a1.15,1.15,0,0,0-1.15-1.15H13.556a1.15,1.15,0,0,0-1.15,1.15v1.524H7.053a3.621,3.621,0,1,0,0,2.3h5.353v4.042H6.534a1.15,1.15,0,0,0-1.15,1.15V97.2a6.848,6.848,0,0,0,6.84,6.84h4.764a1.15,1.15,0,1,0,0-2.3H12.225a4.546,4.546,0,0,1-4.54-4.54V79.976H27.356a1.15,1.15,0,1,0,0-2.3H18.549V73.634H40.315v4.042H36.7a1.15,1.15,0,1,0,0,2.3H51.18v21.768H26.333a1.15,1.15,0,0,0,0,2.3h26a1.15,1.15,0,0,0,1.15-1.15V78.826a1.15,1.15,0,0,0-1.15-1.15H46.458V73.634H56.565v36.953a1.15,1.15,0,1,0,2.3,0v-38.1A1.15,1.15,0,0,0,57.715,71.335ZM4.942,72.485h0a1.321,1.321,0,1,1-1.321-1.323,1.323,1.323,0,0,1,1.321,1.323ZM16.25,77.676H14.705V70.96H16.25Zm27.909,0H42.615V70.96h1.544Z" transform="translate(0 -68.661)" fill="#545454"/></g><g transform="translate(32.153 9.015)"><path d="M280.866,147.075h-.055a1.15,1.15,0,0,0,0,2.3h.055a1.15,1.15,0,1,0,0-2.3Z" transform="translate(-279.662 -147.075)" fill="#545454"/></g><g transform="translate(19.183 33.083)"><path d="M168.055,356.415H168a1.15,1.15,0,0,0,0,2.3h.055a1.15,1.15,0,0,0,0-2.3Z" transform="translate(-166.851 -356.415)" fill="#545454"/></g></g></svg>