<svg xmlns="http://www.w3.org/2000/svg" width="23.152" height="23.152" viewBox="0 0 23.152 23.152">
  <g id="vantagens" transform="translate(-69.582 -55.251) rotate(-45)">
    <g id="Grupo_919" data-name="Grupo 919" transform="translate(0 98.403)">
      <g id="Grupo_918" data-name="Grupo 918">
        <path id="Caminho_6736" data-name="Caminho 6736" d="M20.257,107.224l-.238-2a.4.4,0,0,0-.433-.347,1.46,1.46,0,0,1-.346-2.9.4.4,0,0,0,.339-.439l-.238-2A1.3,1.3,0,0,0,17.9,98.413l-13.9,1.659a1.291,1.291,0,0,0-.861.479H1.3a1.3,1.3,0,0,0-1.3,1.3v2.009a.4.4,0,0,0,.389.4,1.46,1.46,0,0,1,0,2.919.4.4,0,0,0-.389.4v2.009a1.3,1.3,0,0,0,1.3,1.3h14a1.3,1.3,0,0,0,1.3-1.3v-.611l2.52-.3a1.3,1.3,0,0,0,1.136-1.444Zm-4.448,1.042v1.314a.508.508,0,0,1-.508.508H12.847v-.742a.4.4,0,1,0-.792,0v.742H1.3a.508.508,0,0,1-.508-.508v-1.654a2.238,2.238,0,0,0,1.177-.632,2.251,2.251,0,0,0,0-3.159A2.238,2.238,0,0,0,.792,103.5v-1.654a.508.508,0,0,1,.508-.508H12.055v4.82a.4.4,0,1,0,.792,0v-4.82H15.3a.509.509,0,0,1,.508.508V103.5a2.252,2.252,0,0,0,0,4.422v.34Zm3.556-.574a.5.5,0,0,1-.339.19l-2.426.29v-.6a.4.4,0,0,0-.389-.4,1.46,1.46,0,0,1,0-2.919.4.4,0,0,0,.389-.4V101.85a1.3,1.3,0,0,0-1.3-1.3H6.662L17.99,99.2a.508.508,0,0,1,.565.444l.2,1.642a2.252,2.252,0,0,0,.524,4.391l.2,1.642A.5.5,0,0,1,19.365,107.692Z" transform="translate(0 -98.403)" fill="#987e12"/>
        <path id="Caminho_6737" data-name="Caminho 6737" d="M305.329,324.888a.4.4,0,0,0-.036-.068.381.381,0,0,0-.049-.06.4.4,0,0,0-.129-.086.388.388,0,0,0-.229-.023.417.417,0,0,0-.074.023.4.4,0,0,0-.178.146.4.4,0,0,0-.036.068.413.413,0,0,0-.023.074.4.4,0,0,0,0,.154.4.4,0,0,0,.023.074.389.389,0,0,0,.036.068.392.392,0,0,0,.11.109.405.405,0,0,0,.068.036.381.381,0,0,0,.074.023.38.38,0,0,0,.155,0,.373.373,0,0,0,.074-.023.425.425,0,0,0,.068-.036.4.4,0,0,0,.06-.049.38.38,0,0,0,.049-.06.391.391,0,0,0,.036-.068.4.4,0,0,0,.023-.074.381.381,0,0,0,0-.154A.416.416,0,0,0,305.329,324.888Z" transform="translate(-292.513 -315.688)" fill="#987e12"/>
        <path id="Caminho_6738" data-name="Caminho 6738" d="M94.3,207.557l-1.739-.253-.778-1.576a.4.4,0,0,0-.71,0l-.684,1.386-.093.189-.658.1-1.081.157a.4.4,0,0,0-.219.675l1.047,1.021.211.206-.12.7L89.3,211.19a.4.4,0,0,0,.574.417l1.555-.818,1.555.818a.4.4,0,0,0,.574-.417l-.3-1.732,1.258-1.226a.4.4,0,0,0-.219-.675Zm-1.74,1.48a.4.4,0,0,0-.114.35l.2,1.146-1.029-.541a.4.4,0,0,0-.368,0l-1.029.541.2-1.146a.4.4,0,0,0-.114-.35l-.488-.475-.345-.336.4-.058.753-.109.035-.007a.4.4,0,0,0,.263-.209l.515-1.043.515,1.043a.4.4,0,0,0,.3.217l1.151.167Z" transform="translate(-84.724 -201.269)" fill="#987e12"/>
      </g>
    </g>
  </g>
</svg>
