<svg xmlns="http://www.w3.org/2000/svg" width="11.133" height="20.673" viewBox="0 0 11.133 20.673"><path d="M81.193,416a1.193,1.193,0,1,0,1.193,1.193A1.194,1.194,0,0,0,81.193,416Zm0,1.59a.4.4,0,1,1,.4-.4A.4.4,0,0,1,81.193,417.59Z" transform="translate(-76.024 -399.302)" fill="#987e12"/><path d="M9.542,80H1.59a1.59,1.59,0,1,0,0,3.181V96.7a3.976,3.976,0,0,0,7.951,0V83.181a1.59,1.59,0,1,0,0-3.181ZM5.566,99.878A3.184,3.184,0,0,1,2.385,96.7V86.8a1.764,1.764,0,0,1,.574.286,2.281,2.281,0,0,0,1.413.464,2.286,2.286,0,0,0,1.414-.464,1.595,1.595,0,0,1,1.945,0,2.369,2.369,0,0,0,1.016.433V96.7A3.184,3.184,0,0,1,5.566,99.878ZM9.542,82.385h-.8v4.328a1.761,1.761,0,0,1-.575-.286,2.383,2.383,0,0,0-2.827,0,1.505,1.505,0,0,1-.973.331,1.5,1.5,0,0,1-.972-.331A2.365,2.365,0,0,0,2.385,86V83.181H7.156v-.8H1.59a.8.8,0,1,1,0-1.59H9.542a.8.8,0,1,1,0,1.59Z" transform="translate(0 -80)" fill="#987e12"/><path d="M136.8,376.4a.4.4,0,1,1-.4-.4A.4.4,0,0,1,136.8,376.4Z" transform="translate(-129.241 -361.29)" fill="#987e12"/><path d="M64.8,352.4a.4.4,0,1,1-.4-.4A.4.4,0,0,1,64.8,352.4Z" transform="translate(-60.819 -338.483)" fill="#987e12"/><path d="M112.8,336.4a.4.4,0,1,1-.4-.4A.4.4,0,0,1,112.8,336.4Z" transform="translate(-106.434 -323.278)" fill="#987e12"/><path d="M96.8,376.4a.4.4,0,1,1-.4-.4A.4.4,0,0,1,96.8,376.4Z" transform="translate(-91.229 -361.29)" fill="#987e12"/><path d="M144.8,296.4a.4.4,0,1,1-.4-.4A.4.4,0,0,1,144.8,296.4Z" transform="translate(-136.844 -285.266)" fill="#987e12"/><path d="M80.8,320.4a.4.4,0,1,1-.4-.4A.4.4,0,0,1,80.8,320.4Z" transform="translate(-76.024 -308.073)" fill="#987e12"/></svg>