<svg xmlns="http://www.w3.org/2000/svg" width="11.395" height="24.622" viewBox="0 0 11.395 24.622"><g transform="translate(5.95 4.302)"><path d="M239.328,80.54a1.287,1.287,0,0,0-.957-.343,5.008,5.008,0,0,0-2.884,1.257c-.725.725-1.824,2.931-.91,3.862a1.287,1.287,0,0,0,.957.343,5,5,0,0,0,2.884-1.257C239.144,83.677,240.242,81.471,239.328,80.54Zm-.682,1.781v.021a4.368,4.368,0,0,1-.837,1.459,4.175,4.175,0,0,1-2.274.97.515.515,0,0,1-.352-.094c-.124-.124-.15-.536.073-1.171a4.368,4.368,0,0,1,.837-1.459,4.18,4.18,0,0,1,2.279-1,.515.515,0,0,1,.352.094C238.848,81.274,238.869,81.686,238.646,82.321Z" transform="translate(-234.231 -80.195)" fill="#987e12"/></g><g transform="translate(5.95 9.515)"><path d="M239.328,177.74a1.287,1.287,0,0,0-.957-.343,5.008,5.008,0,0,0-2.884,1.257c-.725.725-1.824,2.931-.91,3.862a1.287,1.287,0,0,0,.957.343,5,5,0,0,0,2.884-1.257C239.144,180.877,240.242,178.671,239.328,177.74Zm-.682,1.781v.021a4.368,4.368,0,0,1-.837,1.459,4.176,4.176,0,0,1-2.279,1,.515.515,0,0,1-.352-.094c-.124-.124-.15-.536.073-1.171a4.368,4.368,0,0,1,.837-1.459,4.18,4.18,0,0,1,2.279-1,.515.515,0,0,1,.352.094C238.848,178.474,238.869,178.9,238.646,179.521Z" transform="translate(-234.231 -177.395)" fill="#987e12"/></g><g transform="translate(5.95 14.729)"><path d="M239.328,274.94a1.288,1.288,0,0,0-.957-.343,5.008,5.008,0,0,0-2.884,1.257c-.725.725-1.824,2.931-.91,3.862a1.287,1.287,0,0,0,.957.343,5,5,0,0,0,2.884-1.257C239.144,278.077,240.242,275.872,239.328,274.94Zm-.682,1.781v.021a4.368,4.368,0,0,1-.832,1.442,4.176,4.176,0,0,1-2.279,1,.515.515,0,0,1-.352-.094c-.124-.124-.15-.536.073-1.172a4.368,4.368,0,0,1,.837-1.455,4.18,4.18,0,0,1,2.279-1,.515.515,0,0,1,.352.094C238.848,275.674,238.869,276.082,238.646,276.721Z" transform="translate(-234.231 -274.595)" fill="#987e12"/></g><g transform="translate(0 4.272)"><path d="M127.491,80.894a5.008,5.008,0,0,0-2.884-1.257,1.287,1.287,0,0,0-.957.343c-.91.914.185,3.115.91,3.862a5,5,0,0,0,2.884,1.257,1.287,1.287,0,0,0,.957-.343C129.315,83.842,128.216,81.641,127.491,80.894Zm.3,3.266a.515.515,0,0,1-.352.094,4.176,4.176,0,0,1-2.279-1,4.368,4.368,0,0,1-.837-1.459c-.21-.635-.189-1.047-.064-1.172a.515.515,0,0,1,.352-.094,4.18,4.18,0,0,1,2.279,1,4.368,4.368,0,0,1,.828,1.459C127.937,83.628,127.912,84.035,127.787,84.16Z" transform="translate(-123.305 -79.635)" fill="#987e12"/></g><g transform="translate(0 9.498)"><path d="M127.491,178.334a5.008,5.008,0,0,0-2.884-1.257,1.287,1.287,0,0,0-.957.343c-.91.914.185,3.115.91,3.862a5,5,0,0,0,2.884,1.257,1.287,1.287,0,0,0,.957-.343C129.315,181.282,128.216,179.081,127.491,178.334Zm.3,3.253a.515.515,0,0,1-.352.094,4.175,4.175,0,0,1-2.279-1,4.368,4.368,0,0,1-.837-1.459c-.21-.618-.189-1.047-.064-1.171a.515.515,0,0,1,.352-.094,4.18,4.18,0,0,1,2.279,1,4.368,4.368,0,0,1,.828,1.459C127.937,181.055,127.912,181.463,127.787,181.587Z" transform="translate(-123.305 -177.075)" fill="#987e12"/></g><g transform="translate(0 14.729)"><path d="M127.491,275.854a5.008,5.008,0,0,0-2.884-1.257,1.287,1.287,0,0,0-.957.343c-.91.914.185,3.115.91,3.862a5,5,0,0,0,2.884,1.257,1.287,1.287,0,0,0,.957-.343C129.315,278.785,128.221,276.579,127.491,275.854Zm.3,3.236a.515.515,0,0,1-.352.094,4.175,4.175,0,0,1-2.279-1,4.369,4.369,0,0,1-.837-1.459c-.223-.639-.2-1.047-.077-1.171a.515.515,0,0,1,.352-.094,4.179,4.179,0,0,1,2.283,1.008,4.368,4.368,0,0,1,.828,1.45C127.946,278.553,127.92,278.965,127.8,279.09Z" transform="translate(-123.305 -274.595)" fill="#987e12"/></g><g transform="translate(5.207 20.169)"><path d="M220.812,376a.429.429,0,0,0-.429.429v3.6a.429.429,0,0,0,.858,0v-3.6A.429.429,0,0,0,220.812,376Z" transform="translate(-220.383 -376)" fill="#987e12"/></g><g transform="translate(2.899)"><path d="M177.772,0a.429.429,0,0,0-.429.429v3.6a.429.429,0,1,0,.858,0V.429A.429.429,0,0,0,177.772,0Z" transform="translate(-177.343)" fill="#987e12"/></g><g transform="translate(5.207 1.287)"><path d="M220.812,24a.429.429,0,0,0-.429.429v3.6a.429.429,0,0,0,.858,0v-3.6A.429.429,0,0,0,220.812,24Z" transform="translate(-220.383 -24)" fill="#987e12"/></g><g transform="translate(7.512)"><path d="M263.772,0a.429.429,0,0,0-.429.429v3.6a.429.429,0,1,0,.858,0V.429A.429.429,0,0,0,263.772,0Z" transform="translate(-263.343)" fill="#987e12"/></g></svg>