<svg xmlns="http://www.w3.org/2000/svg" width="18.051" height="19.256" viewBox="0 0 18.051 19.256"><path d="M33.923,4.248,25.18.028a.282.282,0,0,0-.245,0L16.191,4.248a.282.282,0,0,0-.159.254v10.25a.282.282,0,0,0,.159.254l8.743,4.221a.282.282,0,0,0,.245,0l8.743-4.221a.282.282,0,0,0,.159-.254V4.5A.282.282,0,0,0,33.923,4.248ZM25.057.595,33.151,4.5,30.8,5.635a.279.279,0,0,0-.048-.03L22.718,1.724ZM22.081,2.043l8.082,3.9-1.655.8-8.079-3.9ZM30.352,6.48V9.434l-1.546.746V7.226Zm3.166,8.1-8.179,3.948V8.9l1.951-.942a.282.282,0,1,0-.245-.508l-1.988.96-.782-.378a.282.282,0,0,0-.245.508l.745.36v9.624L16.6,14.576V4.952l6.228,3.007a.282.282,0,0,0,.245-.508L16.963,4.5l2.8-1.353,8.473,4.09,0,0V10.63a.282.282,0,0,0,.4.254l2.11-1.019a.282.282,0,0,0,.159-.254v-3.4l2.6-1.256v9.624Z" transform="translate(-16.032 0.001)" fill="#987e12"/></svg>