<svg xmlns="http://www.w3.org/2000/svg" width="24.27" height="15.524" viewBox="0 0 24.27 15.524"><g transform="translate(0)"><path d="M24.178,95.784c.39-1.332-.548-2.8-1.025-3.429a.415.415,0,0,0,.046-.228,4.849,4.849,0,0,0-2.354-3.005c.075-.1.12-.17.129-.183a.415.415,0,0,0-.162-.6,4.342,4.342,0,0,0-1.967-.444A7.444,7.444,0,0,0,14.66,89.5l-2.046-1.98V84.7a.415.415,0,1,0-.83,0v2.81L9.737,89.558a7.4,7.4,0,0,0-4.184-1.6,4.342,4.342,0,0,0-1.972.461.415.415,0,0,0-.166.563l.008.014.037.054a4.867,4.867,0,0,0-2.378,3,.415.415,0,0,0,.029.228C.634,92.928-.312,94.4.1,95.726a.415.415,0,0,0,.315.291H.448a3.492,3.492,0,0,0,.187,2.972.612.612,0,0,1,.05.042.415.415,0,0,0,.091.1,2.553,2.553,0,0,0,1.507.415A5.006,5.006,0,0,0,3.747,99.3v.029a.415.415,0,0,0,.291.315,2.341,2.341,0,0,0,.664.091,5.058,5.058,0,0,0,2.769-1.121.415.415,0,0,0,.158.037h.066A4.858,4.858,0,0,0,10.7,96.3l.183.129a.395.395,0,0,0,.594-.149c1.278-2.54-.44-5.222-1.141-6.152l1.88-1.868,1.868,1.81c-.685.9-2.428,3.582-1.137,6.152a.415.415,0,0,0,.557.185.406.406,0,0,0,.041-.023l.054-.037a4.867,4.867,0,0,0,3.022,2.374h.066a.415.415,0,0,0,.158-.037,5,5,0,0,0,2.769,1.121,2.358,2.358,0,0,0,.664-.091.415.415,0,0,0,.291-.315V99.37a5.006,5.006,0,0,0,1.465.245,2.553,2.553,0,0,0,1.507-.415.415.415,0,0,0,.091-.1.278.278,0,0,0,.05-.042,3.477,3.477,0,0,0,.187-2.972H23.9A.415.415,0,0,0,24.178,95.784ZM1.784,92.779a3.179,3.179,0,0,0,1.312.3h.149a2.782,2.782,0,0,0,0,.307.415.415,0,0,0,.224.336,2.078,2.078,0,0,0,.22.091,3.652,3.652,0,0,0-.415,1.141,4.3,4.3,0,0,1-2.49.3A4.269,4.269,0,0,1,1.784,92.779Zm1.839,5.7a2.937,2.937,0,0,1-2.354,0,2.9,2.9,0,0,1,0-2.354h.44a4.463,4.463,0,0,0,1.623-.27.685.685,0,0,0,.05.191.415.415,0,0,0,.149.208.415.415,0,0,0,.162.1.8.8,0,0,1,.191.046A4.931,4.931,0,0,0,3.623,98.482Zm-.237-6.259v0a2.329,2.329,0,0,1-1.424-.286A4.462,4.462,0,0,1,3.98,89.707a6.865,6.865,0,0,0,.544.54A5.533,5.533,0,0,0,3.386,92.223Zm1.8-1.474a4.326,4.326,0,0,0,1.245.573,3.6,3.6,0,0,0-.187,1.449,2.905,2.905,0,0,1-2.167.282A4.1,4.1,0,0,1,5.184,90.749ZM4.121,95.622a2.49,2.49,0,0,1,.436-1.66H4.8a3.736,3.736,0,0,0,1.141-.183,3.691,3.691,0,0,0-.174,1.386A2.49,2.49,0,0,1,4.121,95.622ZM4.5,98.914a4.135,4.135,0,0,1,.3-2.49,3.61,3.61,0,0,0,1.141-.415,2.077,2.077,0,0,0,.091.224.415.415,0,0,0,.336.224h.3a3.125,3.125,0,0,0,.295,1.461A3.774,3.774,0,0,1,4.5,98.914Zm2.2-3.246a2.856,2.856,0,0,1,.241-2.075,3.736,3.736,0,0,0,1.606-.154,4.225,4.225,0,0,0,.486,1.1A4.125,4.125,0,0,1,6.694,95.668ZM7.81,97.784a2.32,2.32,0,0,1-.286-1.418,5.538,5.538,0,0,0,1.992-1.15,6.6,6.6,0,0,0,.523.569A4.594,4.594,0,0,1,7.81,97.784ZM10.9,95.439a.414.414,0,0,0-.112-.1,4.234,4.234,0,0,1-1.515-2.49.415.415,0,0,0-.585-.332,3.835,3.835,0,0,1-1.32.315,1.326,1.326,0,0,1-.278-.025,3.2,3.2,0,0,1,.286-1.6.415.415,0,0,0-.332-.585,4.349,4.349,0,0,1-2.619-1.66,3.574,3.574,0,0,1,1.129-.178,6.928,6.928,0,0,1,3.923,1.623C9.7,90.658,11.692,93.1,10.9,95.439Zm2.586-.071c-.772-2.345,1.245-4.811,1.444-5.052a6.439,6.439,0,0,1,3.918-1.59,3.574,3.574,0,0,1,1.129.178.416.416,0,0,0-.1.116,4.255,4.255,0,0,1-2.49,1.515.415.415,0,0,0-.332.585,3.213,3.213,0,0,1,.286,1.6,1.333,1.333,0,0,1-.278.025,3.835,3.835,0,0,1-1.32-.315.415.415,0,0,0-.585.332A4.445,4.445,0,0,1,13.481,95.369Zm2.993,2.49a4.462,4.462,0,0,1-2.233-2.017,6.866,6.866,0,0,0,.54-.544,5.529,5.529,0,0,0,1.984,1.141A2.325,2.325,0,0,1,16.474,97.859Zm-1.191-3.238a4.309,4.309,0,0,0,.573-1.245,3.91,3.91,0,0,0,1.444.178,2.906,2.906,0,0,1,.291,2.179A4.16,4.16,0,0,1,15.283,94.622Zm4.5,4.35a4.009,4.009,0,0,1-2.47-.955,3.126,3.126,0,0,0,.295-1.465h.307a.415.415,0,0,0,.336-.224,1.984,1.984,0,0,0,.091-.22,3.614,3.614,0,0,0,1.146.415A4.06,4.06,0,0,1,19.782,98.972Zm.378-3.292a2.49,2.49,0,0,1-1.66-.436,3.69,3.69,0,0,0-.174-1.386,3.736,3.736,0,0,0,1.141.183h.245A2.491,2.491,0,0,1,20.16,95.68Zm-2.038-2.8a3.379,3.379,0,0,0-.17-1.615,4.229,4.229,0,0,0,1.108-.486,4.153,4.153,0,0,1,1.133,2.333A2.864,2.864,0,0,1,18.122,92.878Zm1.629-2.588a6.709,6.709,0,0,0,.554-.525A4.474,4.474,0,0,1,22.318,92a2.3,2.3,0,0,1-1.424.286A5.54,5.54,0,0,0,19.751,90.291Zm3.261,8.241,0,0a2.9,2.9,0,0,1-2.354,0,4.935,4.935,0,0,0-.257-2.075.64.64,0,0,0,.191-.046A.616.616,0,0,0,20.9,96.1a.811.811,0,0,1,.05-.191,4.459,4.459,0,0,0,1.623.27h.44A2.92,2.92,0,0,1,23.011,98.532Zm.44-3.229,0,0a4.131,4.131,0,0,1-2.49-.3,3.658,3.658,0,0,0-.415-1.141,1.917,1.917,0,0,0,.22-.091.415.415,0,0,0,.224-.336,2.808,2.808,0,0,0,0-.307h.149a3.183,3.183,0,0,0,1.312-.3A3.783,3.783,0,0,1,23.451,95.3Z" transform="translate(0 -84.282)" fill="#987e12"/></g></svg>