<svg xmlns="http://www.w3.org/2000/svg" width="19.236" height="16.255" viewBox="0 0 19.236 16.255"><g transform="translate(0)"><g transform="translate(1.88 0)"><path d="M46.185,31.526a1.391,1.391,0,0,0,.158-.631,1.415,1.415,0,0,0-2.831,0,1.391,1.391,0,0,0,.158.631c-3.381.17-6.47,1.035-6.47,2.543a.4.4,0,0,0,.4.406l.042,0H52.251a.4.4,0,0,0,.4-.4C52.655,32.561,49.578,31.7,46.185,31.526Zm-1.237-1.233a.6.6,0,1,1-.6.6A.6.6,0,0,1,44.948,30.293ZM38.3,33.681c.748-.671,3.182-1.383,6.652-1.383v.016c3.469,0,5.9.712,6.652,1.367Z" transform="translate(-37.2 -29.48)" fill="#987e12"/></g><g transform="translate(3.336 6.943)"><path d="M66.4,166.84a.4.4,0,0,0-.4.4v4.347a.4.4,0,1,0,.809,0v-4.347A.4.4,0,0,0,66.4,166.84Z" transform="translate(-66 -166.84)" fill="#987e12"/></g><g transform="translate(0 5.491)"><path d="M18.831,139.681h-1.5v-1.156a.4.4,0,0,0-.4-.4H2.325a.4.4,0,0,0-.4.4v1.156H.4a.4.4,0,0,0,0,.809h1.52v5.968a2.284,2.284,0,0,0,2.487,2.426H14.885a2.254,2.254,0,0,0,2.426-2.426V140.49h1.52a.4.4,0,0,0,0-.809Zm-2.3,6.777a1.45,1.45,0,0,1-1.617,1.617H4.4a1.5,1.5,0,0,1-1.678-1.617v-7.529H16.527Z" transform="translate(0 -138.12)" fill="#987e12"/></g></g></svg>